<?xml version="1.0" encoding="UTF-8" standalone="no"?>
<svg
   xmlns:dc="http://purl.org/dc/elements/1.1/"
   xmlns:cc="http://creativecommons.org/ns#"
   xmlns:rdf="http://www.w3.org/1999/02/22-rdf-syntax-ns#"
   xmlns:svg="http://www.w3.org/2000/svg"
   xmlns="http://www.w3.org/2000/svg"
   viewBox="0 0 1440 1440"
   height="1440"
   width="1440"
   xml:space="preserve"
   id="svg2"
   version="1.1"><metadata
     id="metadata8"><rdf:RDF><cc:Work
         rdf:about=""><dc:format>image/svg+xml</dc:format><dc:type
           rdf:resource="http://purl.org/dc/dcmitype/StillImage" /></cc:Work></rdf:RDF></metadata><defs
     id="defs6"><clipPath
       id="clipPath18"
       clipPathUnits="userSpaceOnUse"><path
         id="path16"
         d="M 0,1080 H 1080 V 0 H 0 Z" /></clipPath></defs><g
     transform="matrix(1.3333333,0,0,-1.3333333,0,1440)"
     id="g10"><g
       id="g12"><g
         clip-path="url(#clipPath18)"
         id="g14"><g
           transform="translate(663.6123,514.457)"
           id="g20"><path
             id="path22"
             style="fill:#000000;fill-opacity:1;fill-rule:nonzero;stroke:none"
             d="m 0,0 v 19.751 c 0,0.645 -0.081,1.023 -0.268,1.637 l -10.029,32.809 h 7.688 C -0.157,44.858 2.735,33.904 3.604,28.501 h 0.082 c 1.078,5.773 3.975,16.665 6.237,25.696 h 7.394 L 7.13,20.858 C 7.049,20.481 6.968,19.999 6.968,19.036 V 0 Z" /></g><g
           transform="translate(410.3394,514.457)"
           id="g24"><path
             id="path26"
             style="fill:#000000;fill-opacity:1;fill-rule:nonzero;stroke:none"
             d="m 0,0 -9.464,54.197 h 7.528 L 1.335,30.941 C 2.369,23.494 3.763,14.974 4.25,9.072 h 0.133 c 0.459,5.637 1.934,14.211 2.915,21.678 l 3.225,23.447 H 17.97 L 8.604,0 Z" /></g><g
           transform="translate(472.5737,531.3105)"
           id="g28"><path
             id="path30"
             style="fill:#000000;fill-opacity:1;fill-rule:nonzero;stroke:none"
             d="m 0,0 v -27.725 c 0,-5.356 1.941,-7.638 5.289,-7.638 3.564,0 5.314,2.176 5.314,7.833 V 0.024 C 10.603,5.105 8.93,7.688 5.261,7.688 1.768,7.688 0,5.292 0,0 m 17.705,-0.522 v -26.384 c 0,-9.923 -4.148,-14.759 -12.737,-14.759 -8.585,0 -12.07,5.203 -12.07,14.653 v 26.515 c 0,9.749 4.67,14.539 12.525,14.539 8.106,0 12.282,-5.136 12.282,-14.564" /></g><g
           transform="translate(532.7817,568.6543)"
           id="g32"><path
             id="path34"
             style="fill:#000000;fill-opacity:1;fill-rule:nonzero;stroke:none"
             d="m 0,0 h 6.968 v -47.949 h 13.631 l -0.674,-6.248 -19.925,0 z" /></g><g
           transform="translate(592.2109,490.4004)"
           id="g36"><path
             id="path38"
             style="fill:#000000;fill-opacity:1;fill-rule:nonzero;stroke:none"
             d="M 0,0 V 54.198 H 8.178 C 10.746,45.271 17.789,17.627 18.53,13.921 h 0.11 c -0.35,7 -0.407,14.626 -0.407,23.494 v 16.783 h 6.493 V 0 H 16.84 C 14.501,8.46 6.99,38.239 6.188,41.611 H 6.107 C 6.484,35.067 6.545,27.016 6.545,17.251 V 0 Z" /></g><g
           transform="translate(351.106,574.9619)"
           id="g40"><path
             id="path42"
             style="fill:none;stroke:#000000;stroke-width:4.04300022;stroke-linecap:round;stroke-linejoin:miter;stroke-miterlimit:10;stroke-dasharray:none;stroke-opacity:1"
             d="M 0,0 C 31.648,0 31.648,-98.074 63.296,-98.074 94.943,-98.074 94.943,0 126.59,0 c 31.648,0 31.648,-98.074 63.297,-98.074 31.649,0 31.649,98.074 63.298,98.074 31.65,0 31.65,-98.074 63.302,-98.074 31.65,0 31.65,98.074 63.301,98.074" /></g><g
           transform="translate(343.9497,575.1982)"
           id="g44"><path
             id="path46"
             style="fill:#000000;fill-opacity:1;fill-rule:nonzero;stroke:none"
             d="m 0,0 c 0,3.952 3.204,7.156 7.156,7.156 3.953,0 7.157,-3.204 7.157,-7.156 0,-3.952 -3.204,-7.156 -7.157,-7.156 C 3.204,-7.156 0,-3.952 0,0" /></g><g
           transform="translate(723.7373,575.1982)"
           id="g48"><path
             id="path50"
             style="fill:#000000;fill-opacity:1;fill-rule:nonzero;stroke:none"
             d="m 0,0 c 0,3.952 3.204,7.156 7.156,7.156 3.952,0 7.157,-3.204 7.157,-7.156 0,-3.952 -3.205,-7.156 -7.157,-7.156 C 3.204,-7.156 0,-3.952 0,0" /></g></g></g></g></svg>